<?xml version="1.0" encoding="UTF-8" standalone="no"?>
<!-- Created with Inkscape (http://www.inkscape.org/) -->

<svg
   width="16"
   height="16"
   viewBox="0 0 16 16"
   version="1.1"
   id="svg1"
   inkscape:export-filename="растровый.png"
   inkscape:export-xdpi="960"
   inkscape:export-ydpi="960"
   inkscape:version="1.4.2 (ebf0e940, 2025-05-08)"
   sodipodi:docname="icon.svg"
   xmlns:inkscape="http://www.inkscape.org/namespaces/inkscape"
   xmlns:sodipodi="http://sodipodi.sourceforge.net/DTD/sodipodi-0.dtd"
   xmlns:xlink="http://www.w3.org/1999/xlink"
   xmlns="http://www.w3.org/2000/svg"
   xmlns:svg="http://www.w3.org/2000/svg">
  <sodipodi:namedview
     id="namedview1"
     pagecolor="#ffffff"
     bordercolor="#000000"
     borderopacity="0.25"
     inkscape:showpageshadow="2"
     inkscape:pageopacity="0.0"
     inkscape:pagecheckerboard="0"
     inkscape:deskcolor="#d1d1d1"
     inkscape:document-units="px"
     showgrid="true"
     inkscape:zoom="6.5237494"
     inkscape:cx="-6.7445877"
     inkscape:cy="9.3504512"
     inkscape:window-width="1728"
     inkscape:window-height="1055"
     inkscape:window-x="0"
     inkscape:window-y="34"
     inkscape:window-maximized="0"
     inkscape:current-layer="layer1">
    <inkscape:grid
       id="grid1"
       units="px"
       originx="0"
       originy="0"
       spacingx="1"
       spacingy="1"
       empcolor="#0099e5"
       empopacity="0.30196078"
       color="#0099e5"
       opacity="0.14901961"
       empspacing="8"
       enabled="true"
       visible="true" />
  </sodipodi:namedview>
  <defs
     id="defs1">
    <linearGradient
       id="linearGradient186"
       inkscape:collect="always">
      <stop
         style="stop-color:#000000;stop-opacity:0;"
         offset="0.08862878"
         id="stop181" />
      <stop
         style="stop-color:#000000;stop-opacity:0.5;"
         offset="0.24247491"
         id="stop182" />
      <stop
         style="stop-color:#000000;stop-opacity:1;"
         offset="0.3369565"
         id="stop183" />
      <stop
         style="stop-color:#000000;stop-opacity:1;"
         offset="0.53966558"
         id="stop184" />
      <stop
         style="stop-color:#000000;stop-opacity:0.5;"
         offset="0.68666387"
         id="stop185" />
      <stop
         style="stop-color:#000000;stop-opacity:0;"
         offset="0.84782612"
         id="stop186" />
    </linearGradient>
    <linearGradient
       id="linearGradient174"
       inkscape:collect="always">
      <stop
         style="stop-color:#000000;stop-opacity:1;"
         offset="0"
         id="stop174" />
      <stop
         style="stop-color:#000000;stop-opacity:0.49803922;"
         offset="0.28260869"
         id="stop173" />
      <stop
         style="stop-color:#000000;stop-opacity:0;"
         offset="0.76588629"
         id="stop172" />
    </linearGradient>
    <linearGradient
       id="linearGradient168"
       inkscape:collect="always">
      <stop
         style="stop-color:#000000;stop-opacity:0;"
         offset="0.23411371"
         id="stop168" />
      <stop
         style="stop-color:#000000;stop-opacity:0.49803922;"
         offset="0.68729097"
         id="stop170" />
      <stop
         style="stop-color:#000000;stop-opacity:1;"
         offset="1"
         id="stop169" />
    </linearGradient>
    <linearGradient
       id="linearGradient80"
       inkscape:collect="always">
      <stop
         style="stop-color:#e54857;stop-opacity:1;"
         offset="0"
         id="stop80" />
      <stop
         style="stop-color:#c811e2;stop-opacity:1;"
         offset="0.5"
         id="stop82" />
      <stop
         style="stop-color:#7f52ff;stop-opacity:1;"
         offset="1"
         id="stop81" />
    </linearGradient>
    <linearGradient
       inkscape:collect="always"
       xlink:href="#linearGradient174"
       id="linearGradient172"
       x1="9.96875"
       y1="7.515625"
       x2="12"
       y2="7.515625"
       gradientUnits="userSpaceOnUse" />
    <linearGradient
       inkscape:collect="always"
       xlink:href="#linearGradient168"
       id="linearGradient196"
       x1="7"
       y1="6.5"
       x2="9"
       y2="6.5"
       gradientUnits="userSpaceOnUse" />
    <linearGradient
       inkscape:collect="always"
       xlink:href="#linearGradient186"
       id="linearGradient197"
       x1="7"
       y1="2"
       x2="9.9628906"
       y2="6"
       gradientUnits="userSpaceOnUse" />
    <linearGradient
       inkscape:collect="always"
       xlink:href="#linearGradient168"
       id="linearGradient207"
       gradientUnits="userSpaceOnUse"
       x1="7"
       y1="6.5"
       x2="9"
       y2="6.5"
       gradientTransform="rotate(180,8,8)" />
    <linearGradient
       inkscape:collect="always"
       xlink:href="#linearGradient186"
       id="linearGradient208"
       gradientUnits="userSpaceOnUse"
       x1="7"
       y1="2"
       x2="9.9628906"
       y2="6"
       gradientTransform="rotate(180,8,8)" />
    <linearGradient
       inkscape:collect="always"
       xlink:href="#linearGradient174"
       id="linearGradient209"
       gradientUnits="userSpaceOnUse"
       x1="9.96875"
       y1="7.515625"
       x2="12"
       y2="7.515625"
       gradientTransform="rotate(180,8,8)" />
    <linearGradient
       inkscape:collect="always"
       xlink:href="#linearGradient168"
       id="linearGradient214"
       gradientUnits="userSpaceOnUse"
       gradientTransform="rotate(-90,8,8)"
       x1="7"
       y1="6.5"
       x2="9"
       y2="6.5" />
    <linearGradient
       inkscape:collect="always"
       xlink:href="#linearGradient186"
       id="linearGradient215"
       gradientUnits="userSpaceOnUse"
       gradientTransform="rotate(-90,8,8)"
       x1="7"
       y1="2"
       x2="9.9628906"
       y2="6" />
    <linearGradient
       inkscape:collect="always"
       xlink:href="#linearGradient174"
       id="linearGradient216"
       gradientUnits="userSpaceOnUse"
       gradientTransform="rotate(-90,8,8)"
       x1="9.96875"
       y1="7.515625"
       x2="12"
       y2="7.515625" />
    <linearGradient
       inkscape:collect="always"
       xlink:href="#linearGradient168"
       id="linearGradient217"
       gradientUnits="userSpaceOnUse"
       x1="7"
       y1="6.5"
       x2="9"
       y2="6.5"
       gradientTransform="rotate(90,8,8)" />
    <linearGradient
       inkscape:collect="always"
       xlink:href="#linearGradient186"
       id="linearGradient218"
       gradientUnits="userSpaceOnUse"
       x1="7"
       y1="2"
       x2="9.9628906"
       y2="6"
       gradientTransform="rotate(90,8,8)" />
    <linearGradient
       inkscape:collect="always"
       xlink:href="#linearGradient174"
       id="linearGradient219"
       gradientUnits="userSpaceOnUse"
       x1="9.96875"
       y1="7.515625"
       x2="12"
       y2="7.515625"
       gradientTransform="rotate(90,8,8)" />
    <radialGradient
       inkscape:collect="always"
       xlink:href="#linearGradient80"
       id="radialGradient221"
       cx="6.03125"
       cy="9.96875"
       fx="6.03125"
       fy="9.96875"
       r="5"
       gradientUnits="userSpaceOnUse"
       gradientTransform="matrix(1.79375,-0.00624999,0.00624999,1.79375,-4.8496093,-7.875)" />
  </defs>
  <g
     inkscape:label="Слой 1"
     inkscape:groupmode="layer"
     id="layer1">
    <circle
       style="opacity:1;fill:#130318;fill-opacity:1;stroke:none;stroke-width:4;stroke-dasharray:none;stroke-opacity:0.736944;paint-order:stroke fill markers"
       id="path92"
       cx="8"
       cy="8"
       r="8" />
    <path
       id="path138"
       style="opacity:1;fill:#000000;fill-opacity:1;stroke:none;stroke-width:4;stroke-dasharray:none;stroke-opacity:0.736944;paint-order:stroke fill markers"
       d="m 25,3 a 2,2 0 0 0 -2,2 v 1.5 a 3.5,3.5 0 0 0 2.773438,3.4238281 C 25.757763,9.7847075 25.75,9.643282 25.75,9.5 V 8.8847656 A 2.5,2.5 0 0 1 24,6.5 V 5 a 1,1 0 0 1 1,-1 h 1.5 a 2.5,2.5 0 0 1 0.199219,0.00781 c 0.284176,-0.3189131 0.622972,-0.5895854 1,-0.796875 A 3.5,3.5 0 0 0 26.5,3 Z m 4.5,0 A 3.5,3.5 0 0 0 26.076172,5.7734375 C 26.215293,5.7577629 26.356718,5.75 26.5,5.75 h 0.615234 A 2.5,2.5 0 0 1 29.5,4 H 31 a 1,1 0 0 1 1,1 v 1.5 a 2.5,2.5 0 0 1 -0.0078,0.1992188 c 0.318913,0.284176 0.589584,0.622972 0.796874,1 A 3.5,3.5 0 0 0 33,6.5 V 5 A 2,2 0 0 0 31,3 Z m -0.302734,1.2695312 c -0.369904,0.04937 -0.710045,0.1888066 -1,0.3945313 A 2.5,2.5 0 0 1 29,6.5 v 2.25 h 0.5 c 0.171901,0 0.339242,-0.018435 0.5,-0.054687 V 6.5 A 3.5,3.5 0 0 0 29.197266,4.2695312 Z M 26.5,6 a 3.5,3.5 0 0 0 -2.230469,0.8027344 c 0.04937,0.3699038 0.188808,0.7100442 0.394532,1 A 2.5,2.5 0 0 1 26.5,7 h 2.25 V 6.5 C 28.75,6.3280995 28.73156,6.1607582 28.69531,6 Z m 3.726562,0.076172 C 30.242236,6.2152925 30.25,6.356718 30.25,6.5 V 7.1152344 A 2.5,2.5 0 0 1 32,9.5 V 11 a 1,1 0 0 1 -1,1 h -1.5 a 2.5,2.5 0 0 1 -0.199219,-0.0078 c -0.284176,0.318913 -0.622972,0.589584 -1,0.796874 A 3.5,3.5 0 0 0 29.5,13 H 31 a 2,2 0 0 0 2,-2 V 9.5 A 3.5,3.5 0 0 0 30.226562,6.076172 Z M 26.5,7.25 c -0.1719,0 -0.339242,0.018435 -0.5,0.054687 V 9.5 a 3.5,3.5 0 0 0 0.802734,2.230469 c 0.369904,-0.04937 0.710045,-0.188807 1,-0.394531 A 2.5,2.5 0 0 1 27,9.5 V 7.25 Z m 4.835938,0.9472656 A 2.5,2.5 0 0 1 29.5,9 h -2.25 v 0.5 c 0,0.1719005 0.01844,0.3392418 0.05469,0.5 H 29.5 a 3.5,3.5 0 0 0 2.230469,-0.8027344 c -0.04937,-0.3699038 -0.188807,-0.7100442 -0.394531,-1 z m -8.125,0.1035156 A 3.5,3.5 0 0 0 23,9.5 V 11 a 2,2 0 0 0 2,2 h 1.5 a 3.5,3.5 0 0 0 3.423828,-2.773438 C 29.784708,10.242236 29.643282,10.25 29.5,10.25 H 28.884766 A 2.5,2.5 0 0 1 26.5,12 H 25 A 1,1 0 0 1 24,11 V 9.5 a 2.5,2.5 0 0 1 0.0078,-0.1992188 c -0.318913,-0.284176 -0.589585,-0.6229721 -0.796875,-1 z" />
    <path
       id="path149"
       style="opacity:1;fill:url(#radialGradient221);fill-opacity:1;stroke:none;stroke-width:2;stroke-dasharray:none;stroke-opacity:0.736944;paint-order:stroke fill markers"
       d="M 5,3 A 2,2 0 0 0 3,5 V 6.5 A 3.5,3.5 0 0 0 3.3457031,7.998047 3.5,3.5 0 0 0 3,9.5 V 11 a 2,2 0 0 0 2,2 H 6.5 A 3.5,3.5 0 0 0 8.0019531,12.654297 3.5,3.5 0 0 0 9.5,13 H 11 a 2,2 0 0 0 2,-2 V 9.5 A 3.5,3.5 0 0 0 12.654297,8.001953 3.5,3.5 0 0 0 13,6.5 V 5 A 2,2 0 0 0 11,3 H 9.5 A 3.5,3.5 0 0 0 7.9980469,3.3457031 3.5,3.5 0 0 0 6.5,3 Z M 5,4 H 6.5 A 2.5,2.5 0 0 1 6.9980469,4.0566406 3.5,3.5 0 0 0 6.03125,6.03125 3.5,3.5 0 0 0 4.0566406,6.998047 2.5,2.5 0 0 1 4,6.5 V 5 A 1,1 0 0 1 5,4 Z M 9.5,4 H 11 a 1,1 0 0 1 1,1 V 6.5 A 2.5,2.5 0 0 1 11.943359,6.998047 3.5,3.5 0 0 0 9.96875,6.03125 3.5,3.5 0 0 0 9.0019531,4.0566406 2.5,2.5 0 0 1 9.5,4 Z M 8,4.5058594 A 2.5,2.5 0 0 1 8.9492188,6 H 7.0507812 A 2.5,2.5 0 0 1 8,4.5058594 Z M 7,7 H 9 V 9 H 7 Z M 6,7.05078 V 8.949218 A 2.5,2.5 0 0 1 4.5058594,8 2.5,2.5 0 0 1 6,7.050781 Z m 4,0 A 2.5,2.5 0 0 1 11.494141,8 2.5,2.5 0 0 1 10,8.949219 Z M 4.0566406,9.001953 A 3.5,3.5 0 0 0 6.03125,9.96875 3.5,3.5 0 0 0 6.9980469,11.943359 2.5,2.5 0 0 1 6.5,12 H 5 A 1,1 0 0 1 4,11 V 9.5 a 2.5,2.5 0 0 1 0.056641,-0.498047 z m 7.8867184,0 A 2.5,2.5 0 0 1 12,9.5 V 11 a 1,1 0 0 1 -1,1 H 9.5 A 2.5,2.5 0 0 1 9.0019531,11.943359 3.5,3.5 0 0 0 9.96875,9.96875 3.5,3.5 0 0 0 11.943359,9.001953 Z M 7.0507812,10 H 8.9492188 A 2.5,2.5 0 0 1 8,11.494141 2.5,2.5 0 0 1 7.0507812,10 Z" />
    <g
       id="g219">
      <path
         style="fill:url(#linearGradient172);fill-opacity:0.404255;stroke:none;stroke-width:2;stroke-dasharray:none;stroke-opacity:0.736944;paint-order:stroke fill markers"
         d="M 9.96875,6.03125 A 3.5,3.5 0 0 1 10,6.5 V 7.0507812 A 2.5,2.5 0 0 1 11.949219,9 H 12 V 7.0507812 A 3.5,3.5 0 0 0 9.96875,6.03125 Z"
         id="path168" />
      <path
         id="rect167"
         style="fill:url(#linearGradient197);fill-opacity:0.404255;stroke:none;stroke-width:2;stroke-dasharray:none;stroke-opacity:0.736944;paint-order:stroke fill markers"
         d="M 5,3 V 4 H 6.5 A 2.5,2.5 0 0 1 6.9980469,4.0566406 3.5,3.5 0 0 1 8,3.3457031 3.5,3.5 0 0 0 6.5,3 Z M 9.0019531,4.0566406 A 2.5,2.5 0 0 0 8,4.5039062 2.5,2.5 0 0 1 8.9492188,6 H 9.9628906 A 3.5,3.5 0 0 0 9.0019531,4.0566406 Z" />
      <path
         style="fill:url(#linearGradient196);fill-opacity:0.404255;stroke:none;stroke-width:2;stroke-dasharray:none;stroke-opacity:0.736944;paint-order:stroke fill markers"
         d="M 7,6 V 7 H 9 V 6.5 A 2.5,2.5 0 0 0 8.9492188,6 Z"
         id="rect166" />
      <path
         style="fill:url(#linearGradient209);fill-opacity:0.404255;stroke:none;stroke-width:2;stroke-dasharray:none;stroke-opacity:0.736944;paint-order:stroke fill markers"
         d="M 6.03125,9.96875 A 3.5,3.5 0 0 1 6,9.5 V 8.9492188 A 2.5,2.5 0 0 1 4.050781,7 H 4 V 8.9492188 A 3.5,3.5 0 0 0 6.03125,9.96875 Z"
         id="path205" />
      <path
         id="path206"
         style="fill:url(#linearGradient208);fill-opacity:0.404255;stroke:none;stroke-width:2;stroke-dasharray:none;stroke-opacity:0.736944;paint-order:stroke fill markers"
         d="M 11,13 V 12 H 9.5 A 2.5,2.5 0 0 1 9.0019531,11.943359 3.5,3.5 0 0 1 8,12.654297 3.5,3.5 0 0 0 9.5,13 Z M 6.9980469,11.943359 A 2.5,2.5 0 0 0 8,11.496094 2.5,2.5 0 0 1 7.0507812,10 H 6.0371094 a 3.5,3.5 0 0 0 0.9609375,1.943359 z" />
      <path
         style="fill:url(#linearGradient207);fill-opacity:0.404255;stroke:none;stroke-width:2;stroke-dasharray:none;stroke-opacity:0.736944;paint-order:stroke fill markers"
         d="M 9,10 V 9 H 7 v 0.5 a 2.5,2.5 0 0 0 0.050781,0.5 z"
         id="path207" />
      <path
         style="fill:url(#linearGradient219);fill-opacity:0.404255;stroke:none;stroke-width:2;stroke-dasharray:none;stroke-opacity:0.736944;paint-order:stroke fill markers"
         d="M 9.96875,9.96875 A 3.5,3.5 0 0 1 9.5,10 H 8.9492188 A 2.5,2.5 0 0 1 7,11.949219 V 12 H 8.9492188 A 3.5,3.5 0 0 0 9.96875,9.96875 Z"
         id="path209" />
      <path
         id="path210"
         style="fill:url(#linearGradient218);fill-opacity:0.404255;stroke:none;stroke-width:2;stroke-dasharray:none;stroke-opacity:0.736944;paint-order:stroke fill markers"
         d="M 13,5 H 12 V 6.5 A 2.5,2.5 0 0 1 11.943359,6.9980469 3.5,3.5 0 0 1 12.654297,8 3.5,3.5 0 0 0 13,6.5 Z M 11.943359,9.0019531 A 2.5,2.5 0 0 0 11.496094,8 2.5,2.5 0 0 1 10,8.9492188 v 1.0136718 a 3.5,3.5 0 0 0 1.943359,-0.9609375 z" />
      <path
         style="fill:url(#linearGradient217);fill-opacity:0.404255;stroke:none;stroke-width:2;stroke-dasharray:none;stroke-opacity:0.736944;paint-order:stroke fill markers"
         d="M 10,7 H 9 V 9 H 9.5 A 2.5,2.5 0 0 0 10,8.9492188 Z"
         id="path211" />
      <path
         style="fill:url(#linearGradient216);fill-opacity:0.404255;stroke:none;stroke-width:2;stroke-dasharray:none;stroke-opacity:0.736944;paint-order:stroke fill markers"
         d="M 6.03125,6.03125 A 3.5,3.5 0 0 1 6.5,6 H 7.0507812 A 2.5,2.5 0 0 1 9,4.050781 V 4 H 7.0507812 A 3.5,3.5 0 0 0 6.03125,6.03125 Z"
         id="path212" />
      <path
         id="path213"
         style="fill:url(#linearGradient215);fill-opacity:0.404255;stroke:none;stroke-width:2;stroke-dasharray:none;stroke-opacity:0.736944;paint-order:stroke fill markers"
         d="M 3,11 H 4 V 9.5 A 2.5,2.5 0 0 1 4.056641,9.0019531 3.5,3.5 0 0 1 3.345703,8 3.5,3.5 0 0 0 3,9.5 Z M 4.056641,6.9980469 A 2.5,2.5 0 0 0 4.503906,8 2.5,2.5 0 0 1 6,7.0507812 V 6.0371094 A 3.5,3.5 0 0 0 4.056641,6.9980469 Z" />
      <path
         style="fill:url(#linearGradient214);fill-opacity:0.404255;stroke:none;stroke-width:2;stroke-dasharray:none;stroke-opacity:0.736944;paint-order:stroke fill markers"
         d="M 6,9 H 7 V 7 H 6.5 A 2.5,2.5 0 0 0 6,7.050781 Z"
         id="path214" />
    </g>
  </g>
</svg>
